<svg width="48" height="48" viewBox="0 0 48 48" fill="none" xmlns="http://www.w3.org/2000/svg">
<rect width="48" height="48" rx="4" fill="#1D2939"/>
<path d="M30.5 28C32.433 28 34 25.0899 34 21.5C34 17.9101 32.433 15 30.5 15M30.5 28C28.567 28 27 25.0899 27 21.5C27 17.9101 28.567 15 30.5 15M30.5 28L17.4435 25.6261C16.5161 25.4575 16.0523 25.3731 15.6773 25.189C14.9145 24.8142 14.3464 24.1335 14.1141 23.3159C14 22.914 14 22.4427 14 21.5C14 20.5573 14 20.086 14.1141 19.6841C14.3464 18.8665 14.9145 18.1858 15.6773 17.811C16.0523 17.6269 16.5161 17.5425 17.4435 17.3739L30.5 15M17 26L17.3939 31.514C17.4313 32.0376 17.45 32.2995 17.5639 32.4979C17.6642 32.6726 17.8149 32.8129 17.9963 32.9005C18.2023 33 18.4648 33 18.9898 33H20.7722C21.3723 33 21.6724 33 21.8945 32.8803C22.0897 32.7751 22.2443 32.6081 22.3342 32.4055C22.4365 32.1749 22.4135 31.8757 22.3675 31.2773L22 26.5" stroke="white" stroke-width="2" stroke-linecap="round" stroke-linejoin="round"/>
</svg>
